<?xml version="1.0" encoding="UTF-8"?>
<!DOCTYPE svg PUBLIC "-//W3C//DTD SVG 1.1//EN" "http://www.w3.org/Graphics/SVG/1.1/DTD/svg11.dtd">
<svg xmlns="http://www.w3.org/2000/svg" version="1.1" width="500px" height="500px" style="shape-rendering:geometricPrecision; text-rendering:geometricPrecision; image-rendering:optimizeQuality; fill-rule:evenodd; clip-rule:evenodd" xmlns:xlink="http://www.w3.org/1999/xlink">
<g><path style="opacity:1" fill="#f3fdca" d="M 406.5,352.5 C 405.833,352.5 405.167,352.5 404.5,352.5C 402.973,352.573 401.973,351.906 401.5,350.5C 391.024,342.425 380.024,335.092 368.5,328.5C 366.514,287.053 365.848,245.386 366.5,203.5C 352.018,202.003 337.351,201.003 322.5,200.5C 321.432,199.566 320.099,199.232 318.5,199.5C 310.178,198.945 301.844,198.612 293.5,198.5C 293.169,227.671 293.502,256.671 294.5,285.5C 295.585,287.587 297.251,288.92 299.5,289.5C 299.953,290.458 300.619,291.292 301.5,292C 291.833,292.667 282.167,292.667 272.5,292C 273.833,290.667 273.833,289.333 272.5,288C 266.167,287.667 259.833,287.333 253.5,287C 255.653,286.901 257.319,286.067 258.5,284.5C 261.542,284.267 264.208,283.267 266.5,281.5C 270.273,281.343 271.273,279.676 269.5,276.5C 265.889,275.247 262.556,275.914 259.5,278.5C 252.718,280.428 246.051,282.761 239.5,285.5C 238.702,285.043 238.369,284.376 238.5,283.5C 241.766,282.886 243.099,280.886 242.5,277.5C 242.449,275.9 242.116,274.4 241.5,273C 239.511,272.481 238.511,273.314 238.5,275.5C 234.132,279.867 230.132,284.533 226.5,289.5C 225.596,290.209 225.263,291.209 225.5,292.5C 220.637,292.181 215.97,292.514 211.5,293.5C 211.271,298.005 211.937,302.339 213.5,306.5C 213.631,307.376 213.298,308.043 212.5,308.5C 208.109,310.355 204.109,312.689 200.5,315.5C 196.182,316.992 192.182,318.992 188.5,321.5C 187.186,319.085 186.519,316.252 186.5,313C 184.525,299.615 185.191,286.448 188.5,273.5C 210.677,260.244 233.011,247.244 255.5,234.5C 258.525,233.967 259.858,232.133 259.5,229C 259.587,225.671 258.254,223.171 255.5,221.5C 247.2,211.199 238.534,201.199 229.5,191.5C 228.839,188.213 228.339,184.88 228,181.5C 226.615,178.614 224.449,176.614 221.5,175.5C 221.649,172.393 221.149,169.393 220,166.5C 217.568,165.55 215.068,165.55 212.5,166.5C 209.799,165.902 207.132,165.902 204.5,166.5C 203.478,166.855 202.811,167.522 202.5,168.5C 199.237,168.674 197.57,170.341 197.5,173.5C 196.869,175.448 195.869,177.281 194.5,179C 183.639,178.271 174.972,182.104 168.5,190.5C 156.5,191.833 144.5,191.833 132.5,190.5C 133.089,187.36 133.756,184.36 134.5,181.5C 149.524,177.88 163.857,172.38 177.5,165C 194.55,151.615 211.884,138.615 229.5,126C 249.201,113.991 270.534,109.658 293.5,113C 336.412,117.702 371.912,136.202 400,168.5C 427.882,213.582 436.882,262.249 427,314.5C 423.024,328.79 416.191,341.456 406.5,352.5 Z M 310.5,316.5 C 311.72,318.284 311.72,319.95 310.5,321.5C 309.524,320.185 308.524,318.852 307.5,317.5C 308.325,316.614 309.325,316.281 310.5,316.5 Z"/></g>
<g><path style="opacity:1" fill="#2e393d" d="M 262.5,118.5 C 286.679,117.182 298.512,128.515 298,152.5C 291.035,173.052 277.202,179.885 256.5,173C 244.887,166.19 239.721,156.023 241,142.5C 244.182,130.824 251.348,122.824 262.5,118.5 Z"/></g>
<g><path style="opacity:1" fill="#f0f9c7" d="M 262.5,124.5 C 276.426,122.379 286.26,127.712 292,140.5C 293.81,160.688 284.643,170.521 264.5,170C 248.752,163.763 243.585,152.596 249,136.5C 252.454,131.206 256.954,127.206 262.5,124.5 Z"/></g>
<g><path style="opacity:1" fill="#cbf941" d="M 125.5,149.5 C 126.29,150.609 126.79,151.942 127,153.5C 127.41,152.099 127.91,150.766 128.5,149.5C 129.356,145.43 130.523,141.43 132,137.5C 132.287,143.708 131.787,149.875 130.5,156C 130.528,157.07 130.861,157.903 131.5,158.5C 132.674,159.514 133.34,160.847 133.5,162.5C 133.5,163.167 133.5,163.833 133.5,164.5C 132.596,165.209 132.263,166.209 132.5,167.5C 126.741,167.786 121.075,167.452 115.5,166.5C 115.039,164.45 114.372,162.45 113.5,160.5C 114.718,160.891 115.552,160.224 116,158.5C 116.915,159.328 117.581,160.328 118,161.5C 117.964,155.751 117.131,150.084 115.5,144.5C 116.359,143.226 117.026,143.392 117.5,145C 118.137,147.245 118.97,149.412 120,151.5C 120.524,146.406 121.524,141.406 123,136.5C 123.493,142.26 124.327,146.593 125.5,149.5 Z"/></g>
<g><path style="opacity:1" fill="#444f4d" d="M 272.5,149.5 C 270.856,149.286 269.356,149.62 268,150.5C 267.506,148.866 267.34,147.199 267.5,145.5C 268.833,145.5 270.167,145.5 271.5,145.5C 271.433,146.959 271.766,148.292 272.5,149.5 Z"/></g>
<g><path style="opacity:0.104" fill="#f4fed0" d="M 125.5,149.5 C 126.348,148.375 127.348,148.375 128.5,149.5C 127.91,150.766 127.41,152.099 127,153.5C 126.79,151.942 126.29,150.609 125.5,149.5 Z"/></g>
<g><path style="opacity:1" fill="#626c63" d="M 272.5,149.5 C 274.886,150.373 276.886,151.873 278.5,154C 275.879,153.573 273.879,152.073 272.5,149.5 Z"/></g>
<g><path style="opacity:0.573" fill="#eefeb2" d="M 131.5,158.5 C 132.209,157.596 133.209,157.263 134.5,157.5C 134.784,159.415 134.451,161.081 133.5,162.5C 134.451,161.081 134.784,159.415 134.5,157.5C 133.209,157.263 132.209,157.596 131.5,158.5 Z"/></g>
<g><path style="opacity:1" fill="#818985" d="M 212.5,166.5 C 208.684,167.09 207.017,169.423 207.5,173.5C 206.833,173.5 206.167,173.5 205.5,173.5C 206.301,171.958 206.634,170.292 206.5,168.5C 205.167,168.5 203.833,168.5 202.5,168.5C 202.811,167.522 203.478,166.855 204.5,166.5C 207.132,165.902 209.799,165.902 212.5,166.5 Z"/></g>
<g><path style="opacity:1" fill="#f6f7f7" d="M 212.5,166.5 C 213.189,167.707 213.355,169.041 213,170.5C 217.051,164.767 219.551,165.434 220.5,172.5C 220.457,173.416 220.124,174.083 219.5,174.5C 215.421,173.252 211.421,172.918 207.5,173.5C 207.017,169.423 208.684,167.09 212.5,166.5 Z"/></g>
<g><path style="opacity:1" fill="#767f79" d="M 221.5,175.5 C 220.508,175.672 219.842,175.338 219.5,174.5C 220.124,174.083 220.457,173.416 220.5,172.5C 219.551,165.434 217.051,164.767 213,170.5C 213.355,169.041 213.189,167.707 212.5,166.5C 215.068,165.55 217.568,165.55 220,166.5C 221.149,169.393 221.649,172.393 221.5,175.5 Z"/></g>
<g><path style="opacity:1" fill="#f8f8f8" d="M 202.5,168.5 C 203.833,168.5 205.167,168.5 206.5,168.5C 206.634,170.292 206.301,171.958 205.5,173.5C 204.791,174.404 203.791,174.737 202.5,174.5C 202.5,172.5 202.5,170.5 202.5,168.5 Z"/></g>
<g><path style="opacity:1" fill="#eaece9" d="M 229.5,191.5 C 238.534,201.199 247.2,211.199 255.5,221.5C 256.891,223.792 257.891,226.292 258.5,229C 258.137,231.192 257.137,233.026 255.5,234.5C 233.011,247.244 210.677,260.244 188.5,273.5C 187.766,272.122 187.099,270.622 186.5,269C 188.007,268.163 188.507,266.996 188,265.5C 186.333,267.5 184.667,269.5 183,271.5C 182.623,270.058 181.79,269.058 180.5,268.5C 175.919,261.676 171.586,254.676 167.5,247.5C 170.842,244.732 174.342,242.066 178,239.5C 181.107,244.056 183.94,248.723 186.5,253.5C 187.391,255.609 188.558,257.609 190,259.5C 190.464,258.906 190.631,258.239 190.5,257.5C 197.484,254.675 204.151,251.341 210.5,247.5C 214.748,247.047 218.748,246.047 222.5,244.5C 224.104,243.713 224.771,242.38 224.5,240.5C 231.933,237.284 239.266,233.784 246.5,230C 238.839,227.834 239.172,227.167 247.5,228C 240,217.167 232.5,206.333 225,195.5C 224.517,196.448 224.351,197.448 224.5,198.5C 223.326,197.486 222.66,196.153 222.5,194.5C 223.478,192.468 224.978,190.802 227,189.5C 227.708,190.381 228.542,191.047 229.5,191.5 Z"/></g>
<g><path style="opacity:1" fill="#f7f7f7" d="M 167.5,192.5 C 167.5,194.167 167.5,195.833 167.5,197.5C 145.66,197.169 123.994,197.503 102.5,198.5C 102.5,214.167 102.5,229.833 102.5,245.5C 119.342,245.17 136.008,245.503 152.5,246.5C 152.167,247.5 151.5,248.167 150.5,248.5C 148.456,249.031 146.789,250.198 145.5,252C 131.171,252.5 116.837,252.667 102.5,252.5C 102.665,256.182 102.499,259.848 102,263.5C 101.333,262.167 100.667,260.833 100,259.5C 99.5,237.169 99.3334,214.836 99.5,192.5C 122.167,192.5 144.833,192.5 167.5,192.5 Z"/></g>
<g><path style="opacity:1" fill="#fbfbfa" d="M 222.5,193.5 C 222.5,193.833 222.5,194.167 222.5,194.5C 222.66,196.153 223.326,197.486 224.5,198.5C 225.434,199.568 225.768,200.901 225.5,202.5C 226.393,208.856 227.393,215.189 228.5,221.5C 228.158,222.338 227.492,222.672 226.5,222.5C 225.235,223.514 224.569,225.014 224.5,227C 223.931,232.859 223.264,238.693 222.5,244.5C 221.167,244.5 219.833,244.5 218.5,244.5C 201.857,246.123 196.357,238.79 202,222.5C 203.347,216.778 204.847,211.111 206.5,205.5C 206.232,202.297 204.898,199.63 202.5,197.5C 208.957,195.275 215.624,193.942 222.5,193.5 Z"/></g>
<g><path style="opacity:1" fill="#899093" d="M 167.5,192.5 C 168.461,194.265 168.795,196.265 168.5,198.5C 167.834,204.324 167.5,210.324 167.5,216.5C 167.504,222.872 168.171,228.872 169.5,234.5C 168.205,235.488 166.872,236.488 165.5,237.5C 165.5,224.833 165.5,212.167 165.5,199.5C 144.833,199.5 124.167,199.5 103.5,199.5C 103.5,198.833 103.167,198.5 102.5,198.5C 123.994,197.503 145.66,197.169 167.5,197.5C 167.5,195.833 167.5,194.167 167.5,192.5 Z"/></g>
<g><path style="opacity:1" fill="#fdfdfd" d="M 103.5,199.5 C 124.167,199.5 144.833,199.5 165.5,199.5C 165.5,212.167 165.5,224.833 165.5,237.5C 164.194,238.467 163.527,239.801 163.5,241.5C 160.86,242.448 158.193,243.448 155.5,244.5C 138.167,244.5 120.833,244.5 103.5,244.5C 103.5,229.5 103.5,214.5 103.5,199.5 Z"/></g>
<g><path style="opacity:1" fill="#fbfbfb" d="M 168.5,198.5 C 169.167,200.833 169.833,203.167 170.5,205.5C 170.5,214.833 170.5,224.167 170.5,233.5C 169.833,233.5 169.5,233.833 169.5,234.5C 168.171,228.872 167.504,222.872 167.5,216.5C 167.5,210.324 167.834,204.324 168.5,198.5 Z"/></g>
<g><path style="opacity:1" fill="#394449" d="M 216.5,198.5 C 220.36,198.299 222.194,199.965 222,203.5C 218.794,201.876 216.128,202.542 214,205.5C 213.333,204.167 213.333,202.833 214,201.5C 215.045,200.627 215.878,199.627 216.5,198.5 Z"/></g>
<g><path style="opacity:1" fill="#636b70" d="M 318.5,199.5 C 310.67,200.295 302.67,200.295 294.5,199.5C 294.5,228.167 294.5,256.833 294.5,285.5C 293.502,256.671 293.169,227.671 293.5,198.5C 301.844,198.612 310.178,198.945 318.5,199.5 Z"/></g>
<g><path style="opacity:1" fill="#f5f6f5" d="M 318.5,199.5 C 320.099,199.232 321.432,199.566 322.5,200.5C 334.05,202.315 346.384,203.315 359.5,203.5C 359.5,247.5 359.5,291.5 359.5,335.5C 354.167,331.833 348.833,328.167 343.5,324.5C 336.833,318.508 329.833,312.841 322.5,307.5C 321.639,309.911 320.306,311.911 318.5,313.5C 313.833,314.167 309.167,314.833 304.5,315.5C 297.713,314.917 296.213,311.917 300,306.5C 300.535,301.968 298.368,299.968 293.5,300.5C 289.516,300.155 286.849,301.821 285.5,305.5C 286.306,308.446 287.639,311.112 289.5,313.5C 288.873,314.417 288.539,315.417 288.5,316.5C 287.167,315.5 285.833,314.5 284.5,313.5C 280.953,308.38 276.953,303.714 272.5,299.5C 272.516,297.516 271.516,296.516 269.5,296.5C 263.738,297.543 258.071,297.043 252.5,295C 269.803,293.788 287.136,293.122 304.5,293C 303.211,291.198 301.544,290.031 299.5,289.5C 297.251,288.92 295.585,287.587 294.5,285.5C 294.5,256.833 294.5,228.167 294.5,199.5C 302.67,200.295 310.67,200.295 318.5,199.5 Z"/></g>
<g><path style="opacity:1" fill="#848c86" d="M 322.5,200.5 C 337.351,201.003 352.018,202.003 366.5,203.5C 364.167,203.5 361.833,203.5 359.5,203.5C 346.384,203.315 334.05,202.315 322.5,200.5 Z"/></g>
<g><path style="opacity:0.999" fill="#f3fdcb" d="M 98.5,192.5 C 98.6666,213.503 98.5,234.503 98,255.5C 96.0565,254.193 94.2232,254.193 92.5,255.5C 83.4226,260.756 75.0893,266.922 67.5,274C 67.6387,275.301 68.3054,276.134 69.5,276.5C 70.9302,280.354 72.5969,284.021 74.5,287.5C 76.2571,294.378 77.2571,301.378 77.5,308.5C 60.2823,282.019 59.1157,254.685 74,226.5C 79.608,216.293 87.2747,207.96 97,201.5C 97.1805,198.305 97.6805,195.305 98.5,192.5 Z"/></g>
<g><path style="opacity:1" fill="#82888a" d="M 324.5,205.5 C 318.155,205.347 311.822,205.014 305.5,204.5C 303.393,203.532 301.059,203.198 298.5,203.5C 298.5,227.833 298.5,252.167 298.5,276.5C 297.502,252.006 297.169,227.339 297.5,202.5C 306.712,202.857 315.712,203.857 324.5,205.5 Z"/></g>
<g><path style="opacity:1" fill="#273238" d="M 359.5,203.5 C 361.833,203.5 364.167,203.5 366.5,203.5C 365.848,245.386 366.514,287.053 368.5,328.5C 366.612,330.988 365.945,333.988 366.5,337.5C 364.167,338.833 361.833,338.833 359.5,337.5C 359.5,336.833 359.5,336.167 359.5,335.5C 359.5,291.5 359.5,247.5 359.5,203.5 Z"/></g>
<g><path style="opacity:1" fill="#a1cf0e" d="M 305.5,204.5 C 303.5,204.5 301.5,204.5 299.5,204.5C 299.5,228.5 299.5,252.5 299.5,276.5C 299.167,276.5 298.833,276.5 298.5,276.5C 298.5,252.167 298.5,227.833 298.5,203.5C 301.059,203.198 303.393,203.532 305.5,204.5 Z"/></g>
<g><path style="opacity:1" fill="#c1f803" d="M 305.5,204.5 C 311.822,205.014 318.155,205.347 324.5,205.5C 333.958,207.019 343.625,207.685 353.5,207.5C 353.832,241.671 353.498,275.671 352.5,309.5C 335.037,298.264 317.371,287.264 299.5,276.5C 299.5,252.5 299.5,228.5 299.5,204.5C 301.5,204.5 303.5,204.5 305.5,204.5 Z"/></g>
<g><path style="opacity:1" fill="#858d86" d="M 170.5,205.5 C 171.401,206.29 172.068,207.29 172.5,208.5C 172.227,216.888 172.56,225.221 173.5,233.5C 172.5,233.5 171.5,233.5 170.5,233.5C 170.5,224.167 170.5,214.833 170.5,205.5 Z"/></g>
<g><path style="opacity:1" fill="#8e9786" d="M 225.5,202.5 C 227.924,205.008 229.59,208.008 230.5,211.5C 228.991,210.141 228.324,210.641 228.5,213C 228.934,215.568 229.6,218.068 230.5,220.5C 230.043,221.298 229.376,221.631 228.5,221.5C 227.393,215.189 226.393,208.856 225.5,202.5 Z"/></g>
<g><path style="opacity:1" fill="#d5d9d3" d="M 307.5,208.5 C 309.857,208.337 312.19,208.503 314.5,209C 316.037,210.11 316.703,211.61 316.5,213.5C 327.363,214.756 338.029,216.423 348.5,218.5C 348.831,245.339 348.498,272.005 347.5,298.5C 332.366,290.432 317.366,282.099 302.5,273.5C 302.5,251.833 302.5,230.167 302.5,208.5C 304.167,208.5 305.833,208.5 307.5,208.5 Z"/></g>
<g><path style="opacity:1" fill="#656c79" d="M 353.5,207.5 C 354.83,241.669 354.83,276.002 353.5,310.5C 352.893,310.376 352.56,310.043 352.5,309.5C 353.498,275.671 353.832,241.671 353.5,207.5 Z"/></g>
<g><path style="opacity:1" fill="#e3edbd" d="M 172.5,208.5 C 174.797,210.294 176.963,212.294 179,214.5C 179.499,219.155 179.666,223.821 179.5,228.5C 178.657,231.516 177.157,234.183 175,236.5C 173.961,235.756 173.461,234.756 173.5,233.5C 172.56,225.221 172.227,216.888 172.5,208.5 Z"/></g>
<g><path style="opacity:1" fill="#555f64" d="M 217.5,209.5 C 218.649,209.791 219.316,210.624 219.5,212C 219.167,212.833 218.833,213.667 218.5,214.5C 217.548,212.955 217.215,211.288 217.5,209.5 Z"/></g>
<g><path style="opacity:1" fill="#d6e0b3" d="M 230.5,211.5 C 233.852,216.358 236.852,221.525 239.5,227C 235.835,228.278 232.168,229.444 228.5,230.5C 227.5,230.5 226.5,230.5 225.5,230.5C 225.279,227.721 225.612,225.054 226.5,222.5C 227.492,222.672 228.158,222.338 228.5,221.5C 229.376,221.631 230.043,221.298 230.5,220.5C 229.6,218.068 228.934,215.568 228.5,213C 228.324,210.641 228.991,210.141 230.5,211.5 Z"/></g>
<g><path style="opacity:1" fill="#616b62" d="M 280.5,212.5 C 284.335,212.722 288.002,214.222 291.5,217C 287.691,216.104 284.025,214.604 280.5,212.5 Z"/></g>
<g><path style="opacity:1" fill="#4a5749" d="M 309.5,216.5 C 308.167,216.5 306.833,216.5 305.5,216.5C 305.5,234.833 305.5,253.167 305.5,271.5C 304.503,253.007 304.17,234.341 304.5,215.5C 306.415,215.216 308.081,215.549 309.5,216.5 Z"/></g>
<g><path style="opacity:1" fill="#c3fa02" d="M 309.5,216.5 C 321.417,218.964 333.417,220.964 345.5,222.5C 346.156,245.858 345.49,268.858 343.5,291.5C 331.157,284.327 318.49,277.661 305.5,271.5C 305.5,253.167 305.5,234.833 305.5,216.5C 306.833,216.5 308.167,216.5 309.5,216.5 Z"/></g>
<g><path style="opacity:1" fill="#647f1e" d="M 348.5,218.5 C 349.829,245.336 349.829,272.336 348.5,299.5C 347.893,299.376 347.56,299.043 347.5,298.5C 348.498,272.005 348.831,245.339 348.5,218.5 Z"/></g>
<g><path style="opacity:1" fill="#55615b" d="M 345.5,222.5 C 346.663,245.996 346.83,269.663 346,293.5C 345.005,292.934 344.172,292.267 343.5,291.5C 345.49,268.858 346.156,245.858 345.5,222.5 Z"/></g>
<g><path style="opacity:1" fill="#dffa80" d="M 224.5,240.5 C 223.741,236.094 225.075,232.761 228.5,230.5C 232.168,229.444 235.835,228.278 239.5,227C 236.852,221.525 233.852,216.358 230.5,211.5C 229.59,208.008 227.924,205.008 225.5,202.5C 225.768,200.901 225.434,199.568 224.5,198.5C 224.351,197.448 224.517,196.448 225,195.5C 232.5,206.333 240,217.167 247.5,228C 239.172,227.167 238.839,227.834 246.5,230C 239.266,233.784 231.933,237.284 224.5,240.5 Z"/></g>
<g><path style="opacity:1" fill="#343f45" d="M 211.5,228.5 C 215.158,229.306 215.158,230.639 211.5,232.5C 210.833,232.167 210.167,231.833 209.5,231.5C 210.193,230.482 210.859,229.482 211.5,228.5 Z"/></g>
<g><path style="opacity:1" fill="#719025" d="M 331.5,233.5 C 324.646,232.382 317.979,230.549 311.5,228C 318.446,228.903 325.113,230.736 331.5,233.5 Z"/></g>
<g><path style="opacity:1" fill="#767e7b" d="M 255.5,221.5 C 258.254,223.171 259.587,225.671 259.5,229C 259.858,232.133 258.525,233.967 255.5,234.5C 257.137,233.026 258.137,231.192 258.5,229C 257.891,226.292 256.891,223.792 255.5,221.5 Z"/></g>
<g><path style="opacity:1" fill="#7d867e" d="M 226.5,222.5 C 225.612,225.054 225.279,227.721 225.5,230.5C 226.5,230.5 227.5,230.5 228.5,230.5C 225.075,232.761 223.741,236.094 224.5,240.5C 224.771,242.38 224.104,243.713 222.5,244.5C 223.264,238.693 223.931,232.859 224.5,227C 224.569,225.014 225.235,223.514 226.5,222.5 Z"/></g>
<g><path style="opacity:1" fill="#536831" d="M 307.5,208.5 C 305.833,208.5 304.167,208.5 302.5,208.5C 302.5,230.167 302.5,251.833 302.5,273.5C 301.503,251.673 301.169,229.673 301.5,207.5C 303.735,207.205 305.735,207.539 307.5,208.5 Z"/></g>
<g><path style="opacity:1" fill="#688326" d="M 331.5,233.5 C 334.988,233.705 338.321,234.539 341.5,236C 337.886,236.097 334.553,235.263 331.5,233.5 Z"/></g>
<g><path style="opacity:1" fill="#768072" d="M 268.5,238.5 C 272.105,237.133 275.771,237.3 279.5,239C 275.83,239.279 272.163,239.112 268.5,238.5 Z"/></g>
<g><path style="opacity:1" fill="#6e8c24" d="M 316.5,236.5 C 316.917,235.876 317.584,235.543 318.5,235.5C 323.59,236.697 328.59,238.197 333.5,240C 327.788,239.324 322.121,238.158 316.5,236.5 Z"/></g>
<g><path style="opacity:1" fill="#2d383b" d="M 318.5,240.5 C 331.123,241.699 336.623,248.699 335,261.5C 332.878,269.47 328.045,271.637 320.5,268C 314.151,262.605 311.651,255.772 313,247.5C 314.382,244.695 316.216,242.361 318.5,240.5 Z"/></g>
<g><path style="opacity:1" fill="#374145" d="M 102.5,198.5 C 103.167,198.5 103.5,198.833 103.5,199.5C 103.5,214.5 103.5,229.5 103.5,244.5C 120.833,244.5 138.167,244.5 155.5,244.5C 155.027,245.906 154.027,246.573 152.5,246.5C 136.008,245.503 119.342,245.17 102.5,245.5C 102.5,229.833 102.5,214.167 102.5,198.5 Z"/></g>
<g><path style="opacity:1" fill="#7f8c63" d="M 218.5,244.5 C 219.833,244.5 221.167,244.5 222.5,244.5C 218.748,246.047 214.748,247.047 210.5,247.5C 206.076,247.652 201.743,248.319 197.5,249.5C 197.953,248.542 198.619,247.708 199.5,247C 206.044,246.669 212.377,245.835 218.5,244.5 Z"/></g>
<g><path style="opacity:1" fill="#ecedee" d="M 317.5,246.5 C 318.239,246.369 318.906,246.536 319.5,247C 320.64,248.973 321.973,250.807 323.5,252.5C 324.845,251.653 325.845,250.487 326.5,249C 327.448,248.517 328.448,248.351 329.5,248.5C 329.539,251.81 328.206,254.476 325.5,256.5C 326.667,258.167 327.833,259.833 329,261.5C 329.781,262.944 329.614,264.277 328.5,265.5C 326.507,263.334 324.673,261.001 323,258.5C 322.125,261.215 320.292,262.548 317.5,262.5C 317.269,259.215 318.603,256.715 321.5,255C 319.218,252.603 317.884,249.769 317.5,246.5 Z"/></g>
<g><path style="opacity:1" fill="#e2fd84" d="M 210.5,247.5 C 204.151,251.341 197.484,254.675 190.5,257.5C 190.062,257.565 189.728,257.399 189.5,257C 190.71,255.961 191.71,254.794 192.5,253.5C 194.749,252.92 196.415,251.587 197.5,249.5C 201.743,248.319 206.076,247.652 210.5,247.5 Z"/></g>
<g><path style="opacity:1" fill="#778757" d="M 197.5,249.5 C 196.415,251.587 194.749,252.92 192.5,253.5C 193.585,251.413 195.251,250.08 197.5,249.5 Z"/></g>
<g><path style="opacity:1" fill="#f9f9f8" d="M 142.5,256.5 C 139.497,261.175 136.497,265.841 133.5,270.5C 129.6,271.43 125.6,271.763 121.5,271.5C 121.19,274.713 121.523,277.713 122.5,280.5C 125.082,280.025 127.082,280.692 128.5,282.5C 127.627,286.983 126.627,291.317 125.5,295.5C 124.596,296.209 124.263,297.209 124.5,298.5C 119.5,298.5 114.5,298.5 109.5,298.5C 109.659,288.106 107.826,278.106 104,268.5C 103.501,263.511 103.334,258.511 103.5,253.5C 116.837,253.333 130.171,253.5 143.5,254C 142.748,254.671 142.414,255.504 142.5,256.5 Z"/></g>
<g><path style="opacity:1" fill="#6b7861" d="M 186.5,253.5 C 187.458,253.953 188.292,254.619 189,255.5C 189.816,254.177 190.983,253.511 192.5,253.5C 191.71,254.794 190.71,255.961 189.5,257C 189.728,257.399 190.062,257.565 190.5,257.5C 190.631,258.239 190.464,258.906 190,259.5C 188.558,257.609 187.391,255.609 186.5,253.5 Z"/></g>
<g><path style="opacity:1" fill="#2a353b" d="M 133.5,164.5 C 133.821,166.048 134.821,166.715 136.5,166.5C 136.374,171.586 135.707,176.586 134.5,181.5C 133.756,184.36 133.089,187.36 132.5,190.5C 144.5,191.833 156.5,191.833 168.5,190.5C 174.972,182.104 183.639,178.271 194.5,179C 195.869,177.281 196.869,175.448 197.5,173.5C 197.57,170.341 199.237,168.674 202.5,168.5C 202.5,170.5 202.5,172.5 202.5,174.5C 203.791,174.737 204.791,174.404 205.5,173.5C 206.167,173.5 206.833,173.5 207.5,173.5C 211.421,172.918 215.421,173.252 219.5,174.5C 219.842,175.338 220.508,175.672 221.5,175.5C 224.449,176.614 226.615,178.614 228,181.5C 228.339,184.88 228.839,188.213 229.5,191.5C 228.542,191.047 227.708,190.381 227,189.5C 224.978,190.802 223.478,192.468 222.5,194.5C 222.5,194.167 222.5,193.833 222.5,193.5C 214.496,192.167 206.496,192.833 198.5,195.5C 197.479,196.002 197.312,196.668 198,197.5C 200.827,199.494 203.327,201.828 205.5,204.5C 202.804,207.273 199.971,209.94 197,212.5C 196.542,215.096 197.375,217.263 199.5,219C 197.866,219.494 196.199,219.66 194.5,219.5C 194.169,225.804 193.669,225.47 193,218.5C 191.909,214.391 189.409,212.224 185.5,212C 182.606,214.909 181.773,218.409 183,222.5C 183.561,225.279 184.394,227.946 185.5,230.5C 183.416,228.224 181.916,225.557 181,222.5C 180.809,224.708 180.309,226.708 179.5,228.5C 179.666,223.821 179.499,219.155 179,214.5C 176.963,212.294 174.797,210.294 172.5,208.5C 172.068,207.29 171.401,206.29 170.5,205.5C 169.833,203.167 169.167,200.833 168.5,198.5C 168.795,196.265 168.461,194.265 167.5,192.5C 144.833,192.5 122.167,192.5 99.5,192.5C 99.3334,214.836 99.5,237.169 100,259.5C 100.667,260.833 101.333,262.167 102,263.5C 102.499,259.848 102.665,256.182 102.5,252.5C 116.837,252.667 131.171,252.5 145.5,252C 146.789,250.198 148.456,249.031 150.5,248.5C 148.167,251.5 145.5,254.167 142.5,256.5C 142.414,255.504 142.748,254.671 143.5,254C 130.171,253.5 116.837,253.333 103.5,253.5C 103.334,258.511 103.501,263.511 104,268.5C 107.826,278.106 109.659,288.106 109.5,298.5C 114.5,298.5 119.5,298.5 124.5,298.5C 124.263,297.209 124.596,296.209 125.5,295.5C 125.768,297.099 125.434,298.432 124.5,299.5C 119.305,299.179 114.305,299.513 109.5,300.5C 109.5,302.5 109.5,304.5 109.5,306.5C 114.167,306.5 118.833,306.5 123.5,306.5C 123.5,306.833 123.5,307.167 123.5,307.5C 118.833,307.5 114.167,307.5 109.5,307.5C 110.232,322.557 111.566,337.557 113.5,352.5C 115.167,352.5 116.833,352.5 118.5,352.5C 118.232,350.901 118.566,349.568 119.5,348.5C 119.828,359.014 119.494,369.347 118.5,379.5C 118.5,371.167 118.5,362.833 118.5,354.5C 116.833,354.5 115.167,354.5 113.5,354.5C 114.81,364.04 116.477,373.373 118.5,382.5C 118.5,383.833 118.5,385.167 118.5,386.5C 108.167,386.5 97.8333,386.5 87.5,386.5C 84.8511,374.647 83.0178,362.647 82,350.5C 81.6667,334.5 81.3333,318.5 81,302.5C 79.5655,292.025 76.0655,282.359 70.5,273.5C 78.2553,267.443 86.2553,261.61 94.5,256C 93.9056,255.536 93.2389,255.369 92.5,255.5C 94.2232,254.193 96.0565,254.193 98,255.5C 98.5,234.503 98.6666,213.503 98.5,192.5C 104.234,191.814 110.067,191.148 116,190.5C 115.395,182.933 114.228,175.433 112.5,168C 113.244,166.961 114.244,166.461 115.5,166.5C 121.075,167.452 126.741,167.786 132.5,167.5C 132.263,166.209 132.596,165.209 133.5,164.5 Z"/></g>
<g><path style="opacity:1" fill="#8f9498" d="M 122.5,217.5 C 122.5,220.167 122.5,222.833 122.5,225.5C 130.833,225.5 139.167,225.5 147.5,225.5C 139.016,226.493 130.349,226.826 121.5,226.5C 121.19,223.287 121.523,220.287 122.5,217.5 Z"/></g>
<g><path style="opacity:1" fill="#273238" d="M 122.5,217.5 C 130.833,217.5 139.167,217.5 147.5,217.5C 147.5,220.167 147.5,222.833 147.5,225.5C 139.167,225.5 130.833,225.5 122.5,225.5C 122.5,222.833 122.5,220.167 122.5,217.5 Z"/></g>
<g><path style="opacity:1" fill="#d4d6d7" d="M 192.5,205.5 C 194.013,206.309 195.68,206.476 197.5,206C 195.386,207.518 193.053,207.851 190.5,207C 191.044,206.283 191.711,205.783 192.5,205.5 Z"/></g>
<g><path style="opacity:1" fill="#b5b9bb" d="M 187.5,201.5 C 188.552,201.351 189.552,201.517 190.5,202C 186.054,204.523 181.721,206.856 177.5,209C 180.723,206.236 184.056,203.736 187.5,201.5 Z"/></g>
<g><path style="opacity:1" fill="#c9cbcd" d="M 192.5,205.5 C 193.574,204.115 194.907,202.949 196.5,202C 194.833,201.667 193.167,201.333 191.5,201C 201.587,199.775 201.92,201.275 192.5,205.5 Z"/></g>
<g><path style="opacity:1" fill="#b7babc" d="M 182.5,194.5 C 180.906,195.983 179.24,197.483 177.5,199C 176.833,199.667 176.167,199.667 175.5,199C 177.211,196.481 179.545,194.981 182.5,194.5 Z"/></g>
<g><path style="opacity:1" fill="#a2a8aa" d="M 222.5,189.5 C 222.389,190.117 222.056,190.617 221.5,191C 219.333,191.167 217.167,191.333 215,191.5C 203.852,189.609 193.019,190.609 182.5,194.5C 184.965,192.163 187.965,190.663 191.5,190C 201.828,189.5 212.161,189.334 222.5,189.5 Z"/></g>
<g><path style="opacity:1" fill="#c1c4c6" d="M 222.5,189.5 C 224.168,186.007 223.335,183.34 220,181.5C 218.902,182.384 218.402,183.384 218.5,184.5C 217.571,183.311 217.238,181.978 217.5,180.5C 222.039,179.539 224.372,181.373 224.5,186C 224.613,187.699 223.947,188.866 222.5,189.5 Z"/></g>
<g><path style="opacity:1" fill="#e8e9e9" d="M 197.5,173.5 C 198.265,172.34 199.265,171.34 200.5,170.5C 201.948,173.213 201.281,175.213 198.5,176.5C 197.614,175.675 197.281,174.675 197.5,173.5 Z"/></g>
<g><path style="opacity:1" fill="#fcfdfc" d="M 167.5,247.5 C 171.586,254.676 175.919,261.676 180.5,268.5C 181.407,274.106 181.74,279.773 181.5,285.5C 178.787,298.218 177.287,311.218 177,324.5C 175.432,319.286 173.599,314.286 171.5,309.5C 172.505,315.85 174.505,321.85 177.5,327.5C 178.739,327.058 179.739,326.391 180.5,325.5C 183.485,324.674 186.151,323.341 188.5,321.5C 192.182,318.992 196.182,316.992 200.5,315.5C 205.484,313.674 210.151,311.341 214.5,308.5C 215.167,308.833 215.833,309.167 216.5,309.5C 218.08,312.659 219.08,315.993 219.5,319.5C 219.167,320.167 218.833,320.833 218.5,321.5C 216.589,322.075 214.922,323.075 213.5,324.5C 198.188,331.822 182.855,339.155 167.5,346.5C 167.167,346 166.833,345.5 166.5,345C 168.165,341.209 169.332,337.376 170,333.5C 166.987,337.057 163.32,338.39 159,337.5C 150.92,319.342 145.087,300.509 141.5,281C 142.262,273.571 145.596,267.571 151.5,263C 153.567,262.464 155.401,262.964 157,264.5C 160.024,258.434 163.524,252.768 167.5,247.5 Z"/></g>
<g><path style="opacity:1" fill="#909697" d="M 92.5,255.5 C 93.2389,255.369 93.9056,255.536 94.5,256C 86.2553,261.61 78.2553,267.443 70.5,273.5C 69.7611,273.369 69.0944,273.536 68.5,274C 69.2524,274.671 69.5858,275.504 69.5,276.5C 68.3054,276.134 67.6387,275.301 67.5,274C 75.0893,266.922 83.4226,260.756 92.5,255.5 Z"/></g>
<g><path style="opacity:1" fill="#e0fc7f" d="M 222.5,193.5 C 215.624,193.942 208.957,195.275 202.5,197.5C 204.898,199.63 206.232,202.297 206.5,205.5C 204.847,211.111 203.347,216.778 202,222.5C 196.357,238.79 201.857,246.123 218.5,244.5C 212.377,245.835 206.044,246.669 199.5,247C 198.619,247.708 197.953,248.542 197.5,249.5C 195.251,250.08 193.585,251.413 192.5,253.5C 190.983,253.511 189.816,254.177 189,255.5C 188.292,254.619 187.458,253.953 186.5,253.5C 183.94,248.723 181.107,244.056 178,239.5C 174.342,242.066 170.842,244.732 167.5,247.5C 163.524,252.768 160.024,258.434 157,264.5C 155.401,262.964 153.567,262.464 151.5,263C 145.596,267.571 142.262,273.571 141.5,281C 145.087,300.509 150.92,319.342 159,337.5C 163.32,338.39 166.987,337.057 170,333.5C 169.332,337.376 168.165,341.209 166.5,345C 166.833,345.5 167.167,346 167.5,346.5C 182.855,339.155 198.188,331.822 213.5,324.5C 204.5,331.833 195.5,339.167 186.5,346.5C 182.183,349.486 178.183,352.82 174.5,356.5C 171.556,358.311 168.556,360.144 165.5,362C 163.803,362.384 162.137,362.218 160.5,361.5C 158.623,357.845 156.957,354.178 155.5,350.5C 153.208,342.62 150.541,334.954 147.5,327.5C 145.739,320.216 143.405,313.216 140.5,306.5C 142.092,313.61 144.092,320.61 146.5,327.5C 144.835,343.13 144.002,358.797 144,374.5C 147.082,372.375 150.249,370.375 153.5,368.5C 153.833,368.833 154.167,369.167 154.5,369.5C 149.799,374.198 147.465,379.865 147.5,386.5C 137.833,386.5 128.167,386.5 118.5,386.5C 118.5,385.167 118.5,383.833 118.5,382.5C 118.5,381.5 118.5,380.5 118.5,379.5C 119.494,369.347 119.828,359.014 119.5,348.5C 119.5,347.833 119.5,347.167 119.5,346.5C 120.652,339.691 121.319,332.691 121.5,325.5C 121.5,325.167 121.5,324.833 121.5,324.5C 122.972,320.081 123.638,315.414 123.5,310.5C 123.5,309.5 123.5,308.5 123.5,307.5C 123.5,307.167 123.5,306.833 123.5,306.5C 124.468,304.393 124.802,302.059 124.5,299.5C 125.434,298.432 125.768,297.099 125.5,295.5C 126.627,291.317 127.627,286.983 128.5,282.5C 130.009,279.322 131.342,275.989 132.5,272.5C 133.338,272.158 133.672,271.492 133.5,270.5C 136.497,265.841 139.497,261.175 142.5,256.5C 145.5,254.167 148.167,251.5 150.5,248.5C 151.5,248.167 152.167,247.5 152.5,246.5C 154.027,246.573 155.027,245.906 155.5,244.5C 158.193,243.448 160.86,242.448 163.5,241.5C 163.527,239.801 164.194,238.467 165.5,237.5C 166.872,236.488 168.205,235.488 169.5,234.5C 169.5,233.833 169.833,233.5 170.5,233.5C 171.5,233.5 172.5,233.5 173.5,233.5C 173.461,234.756 173.961,235.756 175,236.5C 177.157,234.183 178.657,231.516 179.5,228.5C 180.309,226.708 180.809,224.708 181,222.5C 181.916,225.557 183.416,228.224 185.5,230.5C 184.394,227.946 183.561,225.279 183,222.5C 181.773,218.409 182.606,214.909 185.5,212C 189.409,212.224 191.909,214.391 193,218.5C 193.669,225.47 194.169,225.804 194.5,219.5C 196.199,219.66 197.866,219.494 199.5,219C 197.375,217.263 196.542,215.096 197,212.5C 199.971,209.94 202.804,207.273 205.5,204.5C 203.327,201.828 200.827,199.494 198,197.5C 197.312,196.668 197.479,196.002 198.5,195.5C 206.496,192.833 214.496,192.167 222.5,193.5 Z"/></g>
<g><path style="opacity:1" fill="#63744e" d="M 185.5,230.5 C 187.839,231.637 190.172,231.804 192.5,231C 189.906,233.106 187.573,232.94 185.5,230.5 Z"/></g>
<g><path style="opacity:1" fill="#6f796c" d="M 282.5,264.5 C 283.552,264.351 284.552,264.517 285.5,265C 281.426,266.692 277.26,268.192 273,269.5C 272.833,269.167 272.667,268.833 272.5,268.5C 275.928,267.156 279.261,265.822 282.5,264.5 Z"/></g>
<g><path style="opacity:1" fill="#788084" d="M 162.5,277.5 C 160.632,274.063 159.466,270.396 159,266.5C 161.064,269.86 162.231,273.526 162.5,277.5 Z"/></g>
<g><path style="opacity:1" fill="#2b363b" d="M 132.5,272.5 C 131.342,275.989 130.009,279.322 128.5,282.5C 127.082,280.692 125.082,280.025 122.5,280.5C 122.5,277.833 122.5,275.167 122.5,272.5C 125.833,272.5 129.167,272.5 132.5,272.5 Z"/></g>
<g><path style="opacity:1" fill="#8d9395" d="M 133.5,270.5 C 133.672,271.492 133.338,272.158 132.5,272.5C 129.167,272.5 125.833,272.5 122.5,272.5C 122.5,275.167 122.5,277.833 122.5,280.5C 121.523,277.713 121.19,274.713 121.5,271.5C 125.6,271.763 129.6,271.43 133.5,270.5 Z"/></g>
<g><path style="opacity:1" fill="#828985" d="M 238.5,283.5 C 241.412,281.042 242.078,278.042 240.5,274.5C 239.817,274.863 239.15,275.196 238.5,275.5C 238.511,273.314 239.511,272.481 241.5,273C 242.116,274.4 242.449,275.9 242.5,277.5C 243.099,280.886 241.766,282.886 238.5,283.5 Z"/></g>
<g><path style="opacity:1" fill="#f0f1f1" d="M 238.5,283.5 C 238.369,284.376 238.702,285.043 239.5,285.5C 246.051,282.761 252.718,280.428 259.5,278.5C 262.789,277.626 266.123,276.959 269.5,276.5C 269.69,278.959 268.69,280.626 266.5,281.5C 264.208,283.267 261.542,284.267 258.5,284.5C 256.436,284.687 254.436,285.187 252.5,286C 251.167,287 251.167,288 252.5,289C 257.176,289.463 261.843,289.296 266.5,288.5C 268.712,288.412 270.712,288.912 272.5,290C 271.833,290.667 271.167,291.333 270.5,292C 264.158,292.475 257.824,292.975 251.5,293.5C 251.36,295.124 252.027,296.29 253.5,297C 258.501,297.9 263.501,298.734 268.5,299.5C 268.5,300.5 268.5,301.5 268.5,302.5C 263.392,302.57 258.392,301.903 253.5,300.5C 252.304,300.846 252.304,301.346 253.5,302C 256.167,303.667 258.833,305.333 261.5,307C 260.975,307.692 260.308,308.192 259.5,308.5C 255.964,306.766 252.297,305.433 248.5,304.5C 243.186,305.178 237.852,305.678 232.5,306C 231.434,307.159 231.767,307.992 233.5,308.5C 233.517,306.972 234.184,306.472 235.5,307C 237.066,309.326 238.732,311.492 240.5,313.5C 240.5,313.833 240.5,314.167 240.5,314.5C 240.427,316.027 241.094,317.027 242.5,317.5C 242.5,317.833 242.5,318.167 242.5,318.5C 242.932,319.71 243.599,320.71 244.5,321.5C 244.5,321.833 244.5,322.167 244.5,322.5C 245.344,324.759 247.011,325.759 249.5,325.5C 249.5,325.833 249.5,326.167 249.5,326.5C 246.253,326.929 246.253,328.262 249.5,330.5C 249.5,330.833 249.5,331.167 249.5,331.5C 251.833,336.892 254.5,341.559 257.5,345.5C 257.5,345.833 257.5,346.167 257.5,346.5C 257.559,348.722 258.725,349.722 261,349.5C 262.326,349.245 263.326,348.578 264,347.5C 265.399,348.227 266.899,348.727 268.5,349C 265.209,349.81 265.209,351.31 268.5,353.5C 270.336,352.972 272.003,352.306 273.5,351.5C 273.833,351.5 274.167,351.5 274.5,351.5C 275.5,351.5 276.5,351.5 277.5,351.5C 274.674,352.975 271.674,354.308 268.5,355.5C 267.583,354.873 266.583,354.539 265.5,354.5C 265.853,352.365 265.02,351.032 263,350.5C 261.251,350.748 260.418,351.748 260.5,353.5C 259.833,353.5 259.167,353.5 258.5,353.5C 255.782,348.922 253.116,344.922 250.5,341.5C 248.063,341.114 246.063,339.947 244.5,338C 243.056,337.219 241.723,337.386 240.5,338.5C 239.908,344.021 239.908,349.354 240.5,354.5C 234.469,342.774 228.802,330.774 223.5,318.5C 223,318.167 222.5,317.833 222,317.5C 220.989,318.056 220.156,318.722 219.5,319.5C 219.08,315.993 218.08,312.659 216.5,309.5C 216.574,307.589 217.574,306.422 219.5,306C 216.271,302.38 213.938,298.213 212.5,293.5C 216.5,293.5 220.5,293.5 224.5,293.5C 224.25,296.214 224.083,298.881 224,301.5C 225.783,297.702 226.616,293.702 226.5,289.5C 230.132,284.533 234.132,279.867 238.5,275.5C 239.15,275.196 239.817,274.863 240.5,274.5C 242.078,278.042 241.412,281.042 238.5,283.5 Z"/></g>
<g><path style="opacity:1" fill="#737b78" d="M 269.5,276.5 C 266.123,276.959 262.789,277.626 259.5,278.5C 262.556,275.914 265.889,275.247 269.5,276.5 Z"/></g>
<g><path style="opacity:1" fill="#7c8387" d="M 162.5,277.5 C 165.791,287.986 168.791,298.652 171.5,309.5C 167.278,299.293 164.278,288.626 162.5,277.5 Z"/></g>
<g><path style="opacity:1" fill="#767e7a" d="M 269.5,276.5 C 271.273,279.676 270.273,281.343 266.5,281.5C 268.69,280.626 269.69,278.959 269.5,276.5 Z"/></g>
<g><path style="opacity:1" fill="#e4e6e6" d="M 70.5,273.5 C 76.0655,282.359 79.5655,292.025 81,302.5C 81.3333,318.5 81.6667,334.5 82,350.5C 83.0178,362.647 84.8511,374.647 87.5,386.5C 86.1779,386.67 85.0113,386.337 84,385.5C 83.0069,382.526 82.1736,379.526 81.5,376.5C 82.1471,375.726 82.4805,374.726 82.5,373.5C 81.3381,366.205 80.5048,358.871 80,351.5C 79.6667,336.5 79.3333,321.5 79,306.5C 78.6896,299.759 77.1896,293.426 74.5,287.5C 72.5969,284.021 70.9302,280.354 69.5,276.5C 69.5858,275.504 69.2524,274.671 68.5,274C 69.0944,273.536 69.7611,273.369 70.5,273.5 Z"/></g>
<g><path style="opacity:1" fill="#748556" d="M 140.5,306.5 C 134.916,295.398 133.416,283.731 136,271.5C 135.582,276.465 135.582,281.465 136,286.5C 137.611,293.16 139.111,299.827 140.5,306.5 Z"/></g>
<g><path style="opacity:1" fill="#e4eec0" d="M 183.5,287.5 C 182.664,300.228 181.664,312.895 180.5,325.5C 179.195,323.603 178.529,321.269 178.5,318.5C 179.074,308.43 180.24,298.43 182,288.5C 182.383,287.944 182.883,287.611 183.5,287.5 Z"/></g>
<g><path style="opacity:1" fill="#778079" d="M 226.5,289.5 C 226.616,293.702 225.783,297.702 224,301.5C 224.083,298.881 224.25,296.214 224.5,293.5C 220.5,293.5 216.5,293.5 212.5,293.5C 212.167,293.5 211.833,293.5 211.5,293.5C 215.97,292.514 220.637,292.181 225.5,292.5C 225.263,291.209 225.596,290.209 226.5,289.5 Z"/></g>
<g><path style="opacity:1" fill="#78807b" d="M 258.5,284.5 C 257.319,286.067 255.653,286.901 253.5,287C 259.833,287.333 266.167,287.667 272.5,288C 273.833,289.333 273.833,290.667 272.5,292C 282.167,292.667 291.833,292.667 301.5,292C 300.619,291.292 299.953,290.458 299.5,289.5C 301.544,290.031 303.211,291.198 304.5,293C 287.136,293.122 269.803,293.788 252.5,295C 258.071,297.043 263.738,297.543 269.5,296.5C 271.516,296.516 272.516,297.516 272.5,299.5C 271.348,298.375 270.348,298.375 269.5,299.5C 269.167,299.5 268.833,299.5 268.5,299.5C 263.501,298.734 258.501,297.9 253.5,297C 252.027,296.29 251.36,295.124 251.5,293.5C 257.824,292.975 264.158,292.475 270.5,292C 271.167,291.333 271.833,290.667 272.5,290C 270.712,288.912 268.712,288.412 266.5,288.5C 261.843,289.296 257.176,289.463 252.5,289C 251.167,288 251.167,287 252.5,286C 254.436,285.187 256.436,284.687 258.5,284.5 Z"/></g>
<g><path style="opacity:1" fill="#323d43" d="M 211.5,293.5 C 211.833,293.5 212.167,293.5 212.5,293.5C 213.938,298.213 216.271,302.38 219.5,306C 217.574,306.422 216.574,307.589 216.5,309.5C 215.833,309.167 215.167,308.833 214.5,308.5C 214.672,307.508 214.338,306.842 213.5,306.5C 211.937,302.339 211.271,298.005 211.5,293.5 Z"/></g>
<g><path style="opacity:1" fill="#a2a8a9" d="M 109.5,300.5 C 114.305,299.513 119.305,299.179 124.5,299.5C 124.802,302.059 124.468,304.393 123.5,306.5C 123.5,304.5 123.5,302.5 123.5,300.5C 118.833,300.5 114.167,300.5 109.5,300.5 Z"/></g>
<g><path style="opacity:1" fill="#fcfcfc" d="M 109.5,300.5 C 114.167,300.5 118.833,300.5 123.5,300.5C 123.5,302.5 123.5,304.5 123.5,306.5C 118.833,306.5 114.167,306.5 109.5,306.5C 109.5,304.5 109.5,302.5 109.5,300.5 Z"/></g>
<g><path style="opacity:1" fill="#343f43" d="M 188.5,273.5 C 185.191,286.448 184.525,299.615 186.5,313C 186.519,316.252 187.186,319.085 188.5,321.5C 186.151,323.341 183.485,324.674 180.5,325.5C 181.664,312.895 182.664,300.228 183.5,287.5C 183.664,284.813 183.497,282.146 183,279.5C 182.897,282.319 182.397,284.319 181.5,285.5C 181.74,279.773 181.407,274.106 180.5,268.5C 181.79,269.058 182.623,270.058 183,271.5C 184.667,269.5 186.333,267.5 188,265.5C 188.507,266.996 188.007,268.163 186.5,269C 187.099,270.622 187.766,272.122 188.5,273.5 Z"/></g>
<g><path style="opacity:1" fill="#485258" d="M 268.5,299.5 C 268.833,299.5 269.167,299.5 269.5,299.5C 271.104,300.287 271.771,301.62 271.5,303.5C 268.729,303.421 266.063,303.921 263.5,305C 265.744,305.05 267.411,305.883 268.5,307.5C 265.927,307.148 263.594,307.648 261.5,309C 264.464,309.84 264.797,310.84 262.5,312C 261.072,312.579 259.738,312.412 258.5,311.5C 258.539,310.244 258.039,309.244 257,308.5C 254.877,310.672 252.711,310.839 250.5,309C 251.167,308.667 251.833,308.333 252.5,308C 251.234,307.691 250.067,307.191 249,306.5C 247.829,307.893 246.329,308.727 244.5,309C 246.256,309.202 247.922,309.702 249.5,310.5C 246.343,311.73 243.343,312.73 240.5,313.5C 238.732,311.492 237.066,309.326 235.5,307C 234.184,306.472 233.517,306.972 233.5,308.5C 231.767,307.992 231.434,307.159 232.5,306C 237.852,305.678 243.186,305.178 248.5,304.5C 252.297,305.433 255.964,306.766 259.5,308.5C 260.308,308.192 260.975,307.692 261.5,307C 258.833,305.333 256.167,303.667 253.5,302C 252.304,301.346 252.304,300.846 253.5,300.5C 258.392,301.903 263.392,302.57 268.5,302.5C 268.5,301.5 268.5,300.5 268.5,299.5 Z"/></g>
<g><path style="opacity:1" fill="#fafafa" d="M 123.5,307.5 C 123.5,308.5 123.5,309.5 123.5,310.5C 122.028,314.919 121.362,319.586 121.5,324.5C 121.5,324.833 121.5,325.167 121.5,325.5C 119.925,332.27 119.259,339.27 119.5,346.5C 119.5,347.167 119.5,347.833 119.5,348.5C 118.566,349.568 118.232,350.901 118.5,352.5C 116.833,352.5 115.167,352.5 113.5,352.5C 111.566,337.557 110.232,322.557 109.5,307.5C 114.167,307.5 118.833,307.5 123.5,307.5 Z"/></g>
<g><path style="opacity:1" fill="#738356" d="M 140.5,306.5 C 143.405,313.216 145.739,320.216 147.5,327.5C 147.167,327.5 146.833,327.5 146.5,327.5C 144.092,320.61 142.092,313.61 140.5,306.5 Z"/></g>
<g><path style="opacity:1" fill="#7d8681" d="M 213.5,306.5 C 214.338,306.842 214.672,307.508 214.5,308.5C 210.151,311.341 205.484,313.674 200.5,315.5C 204.109,312.689 208.109,310.355 212.5,308.5C 213.298,308.043 213.631,307.376 213.5,306.5 Z"/></g>
<g><path style="opacity:0.699" fill="#f6f6f6" d="M 284.5,313.5 C 288.143,318.148 291.81,322.815 295.5,327.5C 294.646,328.632 294.646,329.965 295.5,331.5C 294.833,331.167 294.167,330.833 293.5,330.5C 293.262,328.596 292.262,327.262 290.5,326.5C 290.672,325.508 290.338,324.842 289.5,324.5C 288.833,323.5 288.167,322.5 287.5,321.5C 287.167,320.5 286.5,319.833 285.5,319.5C 285.167,318.833 284.833,318.167 284.5,317.5C 284.158,316.662 283.492,316.328 282.5,316.5C 282.573,314.973 281.906,313.973 280.5,313.5C 280.5,312.833 280.167,312.5 279.5,312.5C 279.573,310.973 278.906,309.973 277.5,309.5C 277.369,308.761 277.536,308.094 278,307.5C 280.037,309.706 282.203,311.706 284.5,313.5 Z"/></g>
<g><path style="opacity:0.919" fill="#fafafa" d="M 338.5,331.5 C 337.791,332.404 336.791,332.737 335.5,332.5C 330.676,332.035 325.676,331.868 320.5,332C 316.963,328.631 313.629,325.131 310.5,321.5C 311.72,319.95 311.72,318.284 310.5,316.5C 313.246,315.749 315.913,314.749 318.5,313.5C 319.496,313.586 320.329,313.252 321,312.5C 327.728,318.698 333.561,325.031 338.5,331.5 Z"/></g>
<g><path style="opacity:1" fill="#323e43" d="M 242.5,317.5 C 241.094,317.027 240.427,316.027 240.5,314.5C 241.967,313.708 243.3,313.708 244.5,314.5C 245.444,316.137 244.777,317.137 242.5,317.5 Z"/></g>
<g><path style="opacity:1" fill="#a9aeb0" d="M 269.5,299.5 C 270.348,298.375 271.348,298.375 272.5,299.5C 276.953,303.714 280.953,308.38 284.5,313.5C 282.203,311.706 280.037,309.706 278,307.5C 277.536,308.094 277.369,308.761 277.5,309.5C 276.078,309.709 274.745,310.209 273.5,311C 275.25,312.319 277.25,312.819 279.5,312.5C 280.167,312.5 280.5,312.833 280.5,313.5C 279.022,313.238 277.689,313.571 276.5,314.5C 278.023,316.283 280.023,316.949 282.5,316.5C 283.492,316.328 284.158,316.662 284.5,317.5C 279.882,316.975 278.882,318.308 281.5,321.5C 283.026,321.006 284.359,320.339 285.5,319.5C 286.5,319.833 287.167,320.5 287.5,321.5C 283.529,320.796 282.195,322.129 283.5,325.5C 281.504,323.667 279.171,323.167 276.5,324C 275.829,324.986 275.829,326.153 276.5,327.5C 275.288,326.77 274.288,325.77 273.5,324.5C 271.929,325.309 270.262,325.643 268.5,325.5C 268.5,326.167 268.5,326.833 268.5,327.5C 265.653,326.461 263.32,327.128 261.5,329.5C 258.653,328.461 256.32,329.128 254.5,331.5C 252.833,330.167 251.167,330.167 249.5,331.5C 249.5,331.167 249.5,330.833 249.5,330.5C 250.263,329.732 251.263,329.232 252.5,329C 251.922,327.583 250.922,326.75 249.5,326.5C 249.5,326.167 249.5,325.833 249.5,325.5C 249.504,321.67 247.838,320.67 244.5,322.5C 244.5,322.167 244.5,321.833 244.5,321.5C 246.19,321.144 247.19,320.144 247.5,318.5C 245.901,317.438 244.234,317.438 242.5,318.5C 242.5,318.167 242.5,317.833 242.5,317.5C 244.777,317.137 245.444,316.137 244.5,314.5C 243.3,313.708 241.967,313.708 240.5,314.5C 240.5,314.167 240.5,313.833 240.5,313.5C 243.343,312.73 246.343,311.73 249.5,310.5C 247.922,309.702 246.256,309.202 244.5,309C 246.329,308.727 247.829,307.893 249,306.5C 250.067,307.191 251.234,307.691 252.5,308C 251.833,308.333 251.167,308.667 250.5,309C 252.711,310.839 254.877,310.672 257,308.5C 258.039,309.244 258.539,310.244 258.5,311.5C 259.738,312.412 261.072,312.579 262.5,312C 264.797,310.84 264.464,309.84 261.5,309C 263.594,307.648 265.927,307.148 268.5,307.5C 267.411,305.883 265.744,305.05 263.5,305C 266.063,303.921 268.729,303.421 271.5,303.5C 271.771,301.62 271.104,300.287 269.5,299.5 Z"/></g>
<g><path style="opacity:1" fill="#2c373e" d="M 264.5,312.5 C 268.667,314.603 268.334,315.937 263.5,316.5C 259.613,314.352 259.946,313.019 264.5,312.5 Z"/></g>
<g><path style="opacity:1" fill="#323d43" d="M 277.5,309.5 C 278.906,309.973 279.573,310.973 279.5,312.5C 277.25,312.819 275.25,312.319 273.5,311C 274.745,310.209 276.078,309.709 277.5,309.5 Z"/></g>
<g><path style="opacity:1" fill="#2d383e" d="M 258.5,311.5 C 257.526,313.085 256.026,314.085 254,314.5C 253.626,313.584 253.126,312.75 252.5,312C 254.548,310.759 256.548,310.592 258.5,311.5 Z"/></g>
<g><path style="opacity:1" fill="#4d575c" d="M 268.5,307.5 C 270.591,307.682 272.591,307.348 274.5,306.5C 275.308,306.808 275.975,307.308 276.5,308C 274.913,308.862 273.246,309.529 271.5,310C 274.559,312.576 274.059,314.076 270,314.5C 266.51,312.984 266.677,311.818 270.5,311C 268.744,310.798 267.078,310.298 265.5,309.5C 266.602,308.824 267.602,308.158 268.5,307.5 Z"/></g>
<g><path style="opacity:1" fill="#323d42" d="M 269.5,304.5 C 274.814,304.239 275.314,304.906 271,306.5C 269.97,306.164 269.47,305.497 269.5,304.5 Z"/></g>
<g><path style="opacity:1" fill="#303b41" d="M 280.5,313.5 C 281.906,313.973 282.573,314.973 282.5,316.5C 280.023,316.949 278.023,316.283 276.5,314.5C 277.689,313.571 279.022,313.238 280.5,313.5 Z"/></g>
<g><path style="opacity:1" fill="#82898c" d="M 233.5,308.5 C 236.748,312.33 238.915,316.663 240,321.5C 237.295,317.423 235.128,313.09 233.5,308.5 Z"/></g>
<g><path style="opacity:1" fill="#2e393f" d="M 269.5,317.5 C 270.574,315.784 272.241,314.784 274.5,314.5C 277.149,316.937 276.483,318.27 272.5,318.5C 271.416,318.315 270.416,317.982 269.5,317.5 Z"/></g>
<g><path style="opacity:1" fill="#303b41" d="M 247.5,318.5 C 248.347,317.034 249.68,316.2 251.5,316C 243.499,314.353 243.499,313.353 251.5,313C 255.665,318.354 254.332,320.187 247.5,318.5 Z"/></g>
<g><path style="opacity:1" fill="#2e393f" d="M 343.5,324.5 C 342.833,324.5 342.5,324.833 342.5,325.5C 343.109,328.878 341.776,330.878 338.5,331.5C 333.561,325.031 327.728,318.698 321,312.5C 320.329,313.252 319.496,313.586 318.5,313.5C 320.306,311.911 321.639,309.911 322.5,307.5C 329.833,312.841 336.833,318.508 343.5,324.5 Z"/></g>
<g><path style="opacity:1" fill="#2c373d" d="M 269.5,317.5 C 268.277,320.352 266.277,321.019 263.5,319.5C 264.723,316.648 266.723,315.981 269.5,317.5 Z"/></g>
<g><path style="opacity:1" fill="#2e393f" d="M 284.5,317.5 C 284.833,318.167 285.167,318.833 285.5,319.5C 284.359,320.339 283.026,321.006 281.5,321.5C 278.882,318.308 279.882,316.975 284.5,317.5 Z"/></g>
<g><path style="opacity:1" fill="#313c42" d="M 247.5,318.5 C 247.19,320.144 246.19,321.144 244.5,321.5C 243.599,320.71 242.932,319.71 242.5,318.5C 244.234,317.438 245.901,317.438 247.5,318.5 Z"/></g>
<g><path style="opacity:0.592" fill="#8b9295" d="M 318.5,313.5 C 315.913,314.749 313.246,315.749 310.5,316.5C 309.325,316.281 308.325,316.614 307.5,317.5C 308.524,318.852 309.524,320.185 310.5,321.5C 313.629,325.131 316.963,328.631 320.5,332C 325.676,331.868 330.676,332.035 335.5,332.5C 331.006,333.125 326.506,333.791 322,334.5C 314.93,329.265 309.097,322.932 304.5,315.5C 309.167,314.833 313.833,314.167 318.5,313.5 Z"/></g>
<g><path style="opacity:1" fill="#29343a" d="M 263.5,319.5 C 262.526,321.085 261.026,322.085 259,322.5C 256.918,320.321 257.418,318.987 260.5,318.5C 261.584,318.685 262.584,319.018 263.5,319.5 Z"/></g>
<g><path style="opacity:1" fill="#2b363c" d="M 254.5,319.5 C 256.104,320.287 256.771,321.62 256.5,323.5C 254.856,323.286 253.356,323.62 252,324.5C 250.812,323.437 250.312,322.103 250.5,320.5C 252.099,320.768 253.432,320.434 254.5,319.5 Z"/></g>
<g><path style="opacity:1" fill="#2c373d" d="M 272.5,321.5 C 274.75,318.508 277.083,318.342 279.5,321C 277.039,323.376 274.706,323.542 272.5,321.5 Z"/></g>
<g><path style="opacity:1" fill="#2e393e" d="M 287.5,321.5 C 288.167,322.5 288.833,323.5 289.5,324.5C 287.901,326.729 285.901,327.062 283.5,325.5C 282.195,322.129 283.529,320.796 287.5,321.5 Z"/></g>
<g><path style="opacity:1" fill="#eef8c6" d="M 218.5,321.5 C 224.12,333.009 228.787,345.009 232.5,357.5C 227.022,357.369 221.689,358.202 216.5,360C 206.094,363.413 195.761,366.913 185.5,370.5C 185.726,363.462 186.393,356.462 187.5,349.5C 187.48,348.274 187.147,347.274 186.5,346.5C 195.5,339.167 204.5,331.833 213.5,324.5C 214.922,323.075 216.589,322.075 218.5,321.5 Z"/></g>
<g><path style="opacity:1" fill="#69765e" d="M 123.5,310.5 C 123.638,315.414 122.972,320.081 121.5,324.5C 121.362,319.586 122.028,314.919 123.5,310.5 Z"/></g>
<g><path style="opacity:1" fill="#303b41" d="M 249.5,325.5 C 247.011,325.759 245.344,324.759 244.5,322.5C 247.838,320.67 249.504,321.67 249.5,325.5 Z"/></g>
<g><path style="opacity:1" fill="#333d43" d="M 272.5,321.5 C 272.631,322.239 272.464,322.906 272,323.5C 270.698,324.085 269.531,324.751 268.5,325.5C 267.883,325.389 267.383,325.056 267,324.5C 264.334,326.987 261.834,326.987 259.5,324.5C 262.807,322.792 266.307,321.459 270,320.5C 270.902,320.743 271.735,321.077 272.5,321.5 Z"/></g>
<g><path style="opacity:1" fill="#818988" d="M 183.5,287.5 C 182.883,287.611 182.383,287.944 182,288.5C 180.24,298.43 179.074,308.43 178.5,318.5C 178.529,321.269 179.195,323.603 180.5,325.5C 179.739,326.391 178.739,327.058 177.5,327.5C 174.505,321.85 172.505,315.85 171.5,309.5C 173.599,314.286 175.432,319.286 177,324.5C 177.287,311.218 178.787,298.218 181.5,285.5C 182.397,284.319 182.897,282.319 183,279.5C 183.497,282.146 183.664,284.813 183.5,287.5 Z"/></g>
<g><path style="opacity:1" fill="#2b363c" d="M 283.5,325.5 C 281.802,328.175 279.468,328.842 276.5,327.5C 275.829,326.153 275.829,324.986 276.5,324C 279.171,323.167 281.504,323.667 283.5,325.5 Z"/></g>
<g><path style="opacity:1" fill="#28343a" d="M 253.5,324.5 C 256.045,324.151 258.045,324.984 259.5,327C 257.553,327.991 255.553,328.325 253.5,328C 252.316,326.855 252.316,325.688 253.5,324.5 Z"/></g>
<g><path style="opacity:1" fill="#2f3a40" d="M 276.5,327.5 C 275.426,329.216 273.759,330.216 271.5,330.5C 270.712,329.23 269.712,328.23 268.5,327.5C 268.5,326.833 268.5,326.167 268.5,325.5C 270.262,325.643 271.929,325.309 273.5,324.5C 274.288,325.77 275.288,326.77 276.5,327.5 Z"/></g>
<g><path style="opacity:1" fill="#2b373d" d="M 249.5,326.5 C 250.922,326.75 251.922,327.583 252.5,329C 251.263,329.232 250.263,329.732 249.5,330.5C 246.253,328.262 246.253,326.929 249.5,326.5 Z"/></g>
<g><path style="opacity:1" fill="#2e393f" d="M 268.5,327.5 C 268.414,328.496 268.748,329.329 269.5,330C 267.781,331.057 265.947,331.89 264,332.5C 263.623,331.058 262.79,330.058 261.5,329.5C 263.32,327.128 265.653,326.461 268.5,327.5 Z"/></g>
<g><path style="opacity:1" fill="#303b41" d="M 290.5,326.5 C 292.262,327.262 293.262,328.596 293.5,330.5C 290.723,331.528 288.39,331.195 286.5,329.5C 287.211,327.799 288.545,326.799 290.5,326.5 Z"/></g>
<g><path style="opacity:1" fill="#848b8d" d="M 74.5,287.5 C 77.1896,293.426 78.6896,299.759 79,306.5C 79.3333,321.5 79.6667,336.5 80,351.5C 80.5048,358.871 81.3381,366.205 82.5,373.5C 82.4805,374.726 82.1471,375.726 81.5,376.5C 80.3434,370.558 79.5101,364.558 79,358.5C 77.5726,341.824 77.0726,325.157 77.5,308.5C 77.2571,301.378 76.2571,294.378 74.5,287.5 Z"/></g>
<g><path style="opacity:1" fill="#737c75" d="M 121.5,325.5 C 121.319,332.691 120.652,339.691 119.5,346.5C 119.259,339.27 119.925,332.27 121.5,325.5 Z"/></g>
<g><path style="opacity:1" fill="#878d91" d="M 342.5,325.5 C 342.5,324.833 342.833,324.5 343.5,324.5C 348.833,328.167 354.167,331.833 359.5,335.5C 359.5,336.167 359.5,336.833 359.5,337.5C 353.815,333.475 348.149,329.475 342.5,325.5 Z"/></g>
<g><path style="opacity:0.858" fill="#f6f7f4" d="M 146.5,327.5 C 146.833,327.5 147.167,327.5 147.5,327.5C 150.541,334.954 153.208,342.62 155.5,350.5C 155.5,351.167 155.5,351.833 155.5,352.5C 154.603,351.402 153.77,351.402 153,352.5C 151.105,358.908 153.105,363.241 159,365.5C 159.49,364.207 159.657,362.873 159.5,361.5C 159.833,361.5 160.167,361.5 160.5,361.5C 162.137,362.218 163.803,362.384 165.5,362C 168.556,360.144 171.556,358.311 174.5,356.5C 176.017,356.489 177.184,355.823 178,354.5C 178.495,356.473 178.662,358.473 178.5,360.5C 176.114,361.373 174.114,362.873 172.5,365C 169.432,366.016 166.432,367.183 163.5,368.5C 167.898,374.279 173.232,375.112 179.5,371C 180.823,370.184 181.489,369.017 181.5,367.5C 182.537,368.93 183.204,370.597 183.5,372.5C 172.423,377.186 161.423,381.852 150.5,386.5C 149.5,386.5 148.5,386.5 147.5,386.5C 147.465,379.865 149.799,374.198 154.5,369.5C 154.167,369.167 153.833,368.833 153.5,368.5C 150.249,370.375 147.082,372.375 144,374.5C 144.002,358.797 144.835,343.13 146.5,327.5 Z"/></g>
<g><path style="opacity:1" fill="#2b363b" d="M 240.5,354.5 C 246.152,367.141 251.819,379.807 257.5,392.5C 257.167,392.833 256.833,393.167 256.5,393.5C 252.703,391.533 249.036,389.366 245.5,387C 218.835,386.5 192.169,386.333 165.5,386.5C 172.957,383.71 178.957,379.043 183.5,372.5C 183.204,370.597 182.537,368.93 181.5,367.5C 180.677,365.013 179.677,362.679 178.5,360.5C 178.662,358.473 178.495,356.473 178,354.5C 177.184,355.823 176.017,356.489 174.5,356.5C 178.183,352.82 182.183,349.486 186.5,346.5C 187.147,347.274 187.48,348.274 187.5,349.5C 186.393,356.462 185.726,363.462 185.5,370.5C 195.761,366.913 206.094,363.413 216.5,360C 221.689,358.202 227.022,357.369 232.5,357.5C 228.787,345.009 224.12,333.009 218.5,321.5C 218.833,320.833 219.167,320.167 219.5,319.5C 220.156,318.722 220.989,318.056 222,317.5C 222.5,317.833 223,318.167 223.5,318.5C 228.802,330.774 234.469,342.774 240.5,354.5 Z"/></g>
<g><path style="opacity:1" fill="#2a363c" d="M 261.5,329.5 C 261.414,330.496 261.748,331.329 262.5,332C 259.629,334.107 256.963,333.941 254.5,331.5C 256.32,329.128 258.653,328.461 261.5,329.5 Z"/></g>
<g><path style="opacity:1" fill="#2c373d" d="M 286.5,329.5 C 286.441,331.722 285.275,332.722 283,332.5C 281.167,332.481 279.667,331.815 278.5,330.5C 280.937,328.561 283.603,328.227 286.5,329.5 Z"/></g>
<g><path style="opacity:1" fill="#2e393f" d="M 278.5,330.5 C 279.171,331.847 279.171,333.014 278.5,334C 275.829,334.833 273.496,334.333 271.5,332.5C 273.438,330.837 275.772,330.171 278.5,330.5 Z"/></g>
<g><path style="opacity:0.635" fill="#92989b" d="M 284.5,313.5 C 285.833,314.5 287.167,315.5 288.5,316.5C 297.167,326.833 305.833,337.167 314.5,347.5C 313.221,348.968 311.554,349.635 309.5,349.5C 310.398,348.842 311.398,348.176 312.5,347.5C 306.811,340.814 301.144,334.147 295.5,327.5C 291.81,322.815 288.143,318.148 284.5,313.5 Z"/></g>
<g><path style="opacity:0.737" fill="#878e8c" d="M 368.5,328.5 C 380.024,335.092 391.024,342.425 401.5,350.5C 390.235,343.751 379.069,336.751 368,329.5C 367.817,332.365 367.317,335.031 366.5,337.5C 365.945,333.988 366.612,330.988 368.5,328.5 Z"/></g>
<g><path style="opacity:1" fill="#2d383e" d="M 271.5,332.5 C 271.414,333.496 271.748,334.329 272.5,335C 270.141,336.537 267.808,337.037 265.5,336.5C 264.829,335.153 264.829,333.986 265.5,333C 267.658,332.091 269.658,331.925 271.5,332.5 Z"/></g>
<g><path style="opacity:1" fill="#2c373d" d="M 293.5,330.5 C 294.167,330.833 294.833,331.167 295.5,331.5C 295.414,332.496 295.748,333.329 296.5,334C 293.956,336.088 291.623,335.921 289.5,333.5C 290.59,332.143 291.924,331.143 293.5,330.5 Z"/></g>
<g><path style="opacity:1" fill="#7e8589" d="M 243.5,327.5 C 246.415,330.663 248.248,334.33 249,338.5C 246.628,335.09 244.795,331.423 243.5,327.5 Z"/></g>
<g><path style="opacity:1" fill="#b6babc" d="M 289.5,324.5 C 290.338,324.842 290.672,325.508 290.5,326.5C 288.545,326.799 287.211,327.799 286.5,329.5C 283.603,328.227 280.937,328.561 278.5,330.5C 275.772,330.171 273.438,330.837 271.5,332.5C 269.658,331.925 267.658,332.091 265.5,333C 264.829,333.986 264.829,335.153 265.5,336.5C 262.933,333.12 260.1,333.12 257,336.5C 255.933,335.809 254.766,335.309 253.5,335C 254.167,334.667 254.833,334.333 255.5,334C 254.748,333.329 254.414,332.496 254.5,331.5C 256.963,333.941 259.629,334.107 262.5,332C 261.748,331.329 261.414,330.496 261.5,329.5C 262.79,330.058 263.623,331.058 264,332.5C 265.947,331.89 267.781,331.057 269.5,330C 268.748,329.329 268.414,328.496 268.5,327.5C 269.712,328.23 270.712,329.23 271.5,330.5C 273.759,330.216 275.426,329.216 276.5,327.5C 279.468,328.842 281.802,328.175 283.5,325.5C 285.901,327.062 287.901,326.729 289.5,324.5 Z"/></g>
<g><path style="opacity:1" fill="#2f3a40" d="M 298.5,335.5 C 299.906,335.973 300.573,336.973 300.5,338.5C 299.01,340.28 297.01,340.946 294.5,340.5C 294.489,338.983 293.823,337.816 292.5,337C 294.436,336.187 296.436,335.687 298.5,335.5 Z"/></g>
<g><path style="opacity:1" fill="#333e44" d="M 254.5,331.5 C 254.414,332.496 254.748,333.329 255.5,334C 254.833,334.333 254.167,334.667 253.5,335C 254.766,335.309 255.933,335.809 257,336.5C 260.1,333.12 262.933,333.12 265.5,336.5C 262.731,337.972 259.731,339.139 256.5,340C 260.961,341.641 261.295,343.474 257.5,345.5C 254.5,341.559 251.833,336.892 249.5,331.5C 251.167,330.167 252.833,330.167 254.5,331.5 Z"/></g>
<g><path style="opacity:1" fill="#2f3a40" d="M 294.5,340.5 C 290.365,342.073 286.032,343.406 281.5,344.5C 280.416,344.315 279.416,343.982 278.5,343.5C 278.586,342.504 278.252,341.671 277.5,341C 281.644,339.756 285.811,338.589 290,337.5C 291.643,338.315 293.143,339.315 294.5,340.5 Z"/></g>
<g><path style="opacity:1" fill="#acb1b3" d="M 286.5,329.5 C 288.39,331.195 290.723,331.528 293.5,330.5C 291.924,331.143 290.59,332.143 289.5,333.5C 291.623,335.921 293.956,336.088 296.5,334C 295.748,333.329 295.414,332.496 295.5,331.5C 296.974,332.436 297.974,333.77 298.5,335.5C 296.436,335.687 294.436,336.187 292.5,337C 293.823,337.816 294.489,338.983 294.5,340.5C 293.143,339.315 291.643,338.315 290,337.5C 285.811,338.589 281.644,339.756 277.5,341C 278.252,341.671 278.586,342.504 278.5,343.5C 275.762,341.309 272.762,341.142 269.5,343C 270.252,343.671 270.586,344.504 270.5,345.5C 269.518,344.859 268.518,344.193 267.5,343.5C 264.137,344.506 260.804,345.506 257.5,346.5C 257.5,346.167 257.5,345.833 257.5,345.5C 261.295,343.474 260.961,341.641 256.5,340C 259.731,339.139 262.731,337.972 265.5,336.5C 267.808,337.037 270.141,336.537 272.5,335C 271.748,334.329 271.414,333.496 271.5,332.5C 273.496,334.333 275.829,334.833 278.5,334C 279.171,333.014 279.171,331.847 278.5,330.5C 279.667,331.815 281.167,332.481 283,332.5C 285.275,332.722 286.441,331.722 286.5,329.5 Z"/></g>
<g><path style="opacity:1" fill="#2a353b" d="M 271.5,336.5 C 273.564,336.762 274.897,337.929 275.5,340C 272.361,342.16 269.694,341.827 267.5,339C 268.858,338.066 270.192,337.232 271.5,336.5 Z"/></g>
<g><path style="opacity:1" fill="#2a353b" d="M 282.5,336.5 C 280.963,339.067 278.796,339.734 276,338.5C 275.517,337.552 275.351,336.552 275.5,335.5C 278.277,334.472 280.61,334.805 282.5,336.5 Z"/></g>
<g><path style="opacity:1" fill="#2d393f" d="M 289.5,333.5 C 289.414,334.496 289.748,335.329 290.5,336C 287.784,337.212 285.117,337.379 282.5,336.5C 282.5,335.5 282.5,334.5 282.5,333.5C 284.969,332.933 287.302,332.933 289.5,333.5 Z"/></g>
<g><path style="opacity:1" fill="#2a353b" d="M 264.5,338.5 C 268.799,341.054 268.299,342.72 263,343.5C 261.699,342.902 260.865,341.902 260.5,340.5C 261.949,339.828 263.282,339.161 264.5,338.5 Z"/></g>
<g><path style="opacity:0.773" fill="#abafb2" d="M 300.5,338.5 C 301.5,338.833 302.167,339.5 302.5,340.5C 299.906,340.682 297.739,341.682 296,343.5C 293.919,342.667 291.752,342.667 289.5,343.5C 289.088,345.973 290.088,347.306 292.5,347.5C 291.791,348.404 290.791,348.737 289.5,348.5C 288.174,344.176 285.507,343.176 281.5,345.5C 281.738,349.099 280.738,349.433 278.5,346.5C 276.929,347.309 275.262,347.643 273.5,347.5C 273.433,348.959 273.766,350.292 274.5,351.5C 274.167,351.5 273.833,351.5 273.5,351.5C 272.684,349.856 271.35,348.69 269.5,348C 270.252,347.329 270.586,346.496 270.5,345.5C 273.814,347.005 276.481,346.339 278.5,343.5C 279.416,343.982 280.416,344.315 281.5,344.5C 286.032,343.406 290.365,342.073 294.5,340.5C 297.01,340.946 299.01,340.28 300.5,338.5 Z"/></g>
<g><path style="opacity:1" fill="#2a363c" d="M 278.5,343.5 C 276.481,346.339 273.814,347.005 270.5,345.5C 270.586,344.504 270.252,343.671 269.5,343C 272.762,341.142 275.762,341.309 278.5,343.5 Z"/></g>
<g><path style="opacity:1" fill="#384248" d="M 302.5,340.5 C 304.5,341.643 305.167,343.143 304.5,345C 300.553,346.154 296.553,346.987 292.5,347.5C 290.088,347.306 289.088,345.973 289.5,343.5C 291.752,342.667 293.919,342.667 296,343.5C 297.739,341.682 299.906,340.682 302.5,340.5 Z"/></g>
<g><path style="opacity:1" fill="#343f44" d="M 270.5,345.5 C 270.586,346.496 270.252,347.329 269.5,348C 271.35,348.69 272.684,349.856 273.5,351.5C 272.003,352.306 270.336,352.972 268.5,353.5C 265.209,351.31 265.209,349.81 268.5,349C 266.899,348.727 265.399,348.227 264,347.5C 263.326,348.578 262.326,349.245 261,349.5C 258.725,349.722 257.559,348.722 257.5,346.5C 260.804,345.506 264.137,344.506 267.5,343.5C 268.518,344.193 269.518,344.859 270.5,345.5 Z"/></g>
<g><path style="opacity:1" fill="#394449" d="M 289.5,348.5 C 285.6,349.808 281.6,350.808 277.5,351.5C 276.5,351.5 275.5,351.5 274.5,351.5C 273.766,350.292 273.433,348.959 273.5,347.5C 275.262,347.643 276.929,347.309 278.5,346.5C 280.738,349.433 281.738,349.099 281.5,345.5C 285.507,343.176 288.174,344.176 289.5,348.5 Z"/></g>
<g><path style="opacity:0.984" fill="#788375" d="M 155.5,350.5 C 156.957,354.178 158.623,357.845 160.5,361.5C 160.167,361.5 159.833,361.5 159.5,361.5C 157.408,358.912 156.075,355.912 155.5,352.5C 155.5,351.833 155.5,351.167 155.5,350.5 Z"/></g>
<g><path style="opacity:1" fill="#3c464b" d="M 265.5,354.5 C 263.414,356.023 261.748,355.69 260.5,353.5C 260.418,351.748 261.251,350.748 263,350.5C 265.02,351.032 265.853,352.365 265.5,354.5 Z"/></g>
<g><path style="opacity:1" fill="#414b50" d="M 314.5,347.5 C 315.625,349.377 315.291,351.21 313.5,353C 305.524,354.695 297.524,356.195 289.5,357.5C 284.435,357.528 283.769,356.528 287.5,354.5C 294.738,352.524 302.072,350.858 309.5,349.5C 311.554,349.635 313.221,348.968 314.5,347.5 Z"/></g>
<g><path style="opacity:1" fill="#e9eaeb" d="M 118.5,379.5 C 118.5,380.5 118.5,381.5 118.5,382.5C 116.477,373.373 114.81,364.04 113.5,354.5C 115.167,354.5 116.833,354.5 118.5,354.5C 118.5,362.833 118.5,371.167 118.5,379.5 Z"/></g>
<g><path style="opacity:0.584" fill="#8e9498" d="M 404.5,352.5 C 405.167,352.5 405.833,352.5 406.5,352.5C 418.768,360.643 431.101,368.81 443.5,377C 443,377.5 442.5,378 442,378.5C 429.321,369.97 416.821,361.304 404.5,352.5 Z"/></g>
<g><path style="opacity:1" fill="#60686d" d="M 258.5,353.5 C 259.653,355.807 260.82,358.14 262,360.5C 270.377,358.057 278.877,356.057 287.5,354.5C 283.769,356.528 284.435,357.528 289.5,357.5C 280.056,359.99 270.389,361.99 260.5,363.5C 257.704,355.909 254.371,348.576 250.5,341.5C 253.116,344.922 255.782,348.922 258.5,353.5 Z"/></g>
<g><path style="opacity:0.565" fill="#8c9296" d="M 347.5,379.5 C 344.713,378.523 341.713,378.19 338.5,378.5C 341.028,377.834 343.694,377.168 346.5,376.5C 343.236,372.796 339.069,371.13 334,371.5C 325.518,371.367 317.852,373.701 311,378.5C 310.251,379.635 310.417,380.635 311.5,381.5C 312.739,381.942 313.739,382.609 314.5,383.5C 314.5,383.833 314.5,384.167 314.5,384.5C 307.49,382.641 306.824,379.474 312.5,375C 322.836,369.829 333.503,368.829 344.5,372C 345.667,373.167 346.833,374.333 348,375.5C 348.765,377.066 348.598,378.399 347.5,379.5 Z"/></g>
<g><path style="opacity:0.988" fill="#dffa83" d="M 183.5,372.5 C 178.957,379.043 172.957,383.71 165.5,386.5C 160.5,386.5 155.5,386.5 150.5,386.5C 161.423,381.852 172.423,377.186 183.5,372.5 Z"/></g>
<g><path style="opacity:1" fill="#434d53" d="M 338.5,378.5 C 341.713,378.19 344.713,378.523 347.5,379.5C 347.423,380.75 346.756,381.583 345.5,382C 335.28,384.785 324.947,385.618 314.5,384.5C 314.5,384.167 314.5,383.833 314.5,383.5C 322.508,381.829 330.508,380.163 338.5,378.5 Z"/></g>
</svg>
